<?xml version="1.0" encoding="UTF-8" standalone="no"?>
<svg
   xmlns:dc="http://purl.org/dc/elements/1.1/"
   xmlns:cc="http://creativecommons.org/ns#"
   xmlns:rdf="http://www.w3.org/1999/02/22-rdf-syntax-ns#"
   xmlns:svg="http://www.w3.org/2000/svg"
   xmlns="http://www.w3.org/2000/svg"
   xmlns:sodipodi="http://sodipodi.sourceforge.net/DTD/sodipodi-0.dtd"
   xmlns:inkscape="http://www.inkscape.org/namespaces/inkscape"
   width="210mm"
   height="297mm"
   viewBox="0 0 210 297"
   version="1.1"
   id="svg8"
   inkscape:version="1.0.2-2 (e86c870879, 2021-01-15)"
   sodipodi:docname="Solar_Panel_Backplate.svg">
  <defs
     id="defs2" />
  <sodipodi:namedview
     id="base"
     pagecolor="#ffffff"
     bordercolor="#666666"
     borderopacity="1.0"
     inkscape:pageopacity="0.0"
     inkscape:pageshadow="2"
     inkscape:zoom="1.32"
     inkscape:cx="373.09675"
     inkscape:cy="294.99921"
     inkscape:document-units="mm"
     inkscape:current-layer="layer1"
     inkscape:document-rotation="0"
     showgrid="false"
     inkscape:window-width="1920"
     inkscape:window-height="1017"
     inkscape:window-x="1912"
     inkscape:window-y="-8"
     inkscape:window-maximized="1" />
  <metadata
     id="metadata5">
    <rdf:RDF>
      <cc:Work
         rdf:about="">
        <dc:format>image/svg+xml</dc:format>
        <dc:type
           rdf:resource="http://purl.org/dc/dcmitype/StillImage" />
        <dc:title></dc:title>
      </cc:Work>
    </rdf:RDF>
  </metadata>
  <g
     inkscape:label="Layer 1"
     inkscape:groupmode="layer"
     id="layer1">
    <path
       id="rect10"
       style="fill:#0000ff;fill-rule:evenodd;stroke-width:0.999999"
       d="M 76.238281 90.289062 A 45.354319 45.354319 0 0 0 30.882812 135.64453 A 45.354319 45.354319 0 0 0 76.078125 180.99805 A 45.354319 45.354319 0 0 0 76.238281 180.99805 A 75.59054 171.9685 0 0 1 151.82812 352.9668 A 75.59054 171.9685 0 0 1 76.238281 524.93555 A 45.354319 45.354319 0 0 0 30.882812 570.28906 A 45.354319 45.354319 0 0 0 76.238281 615.64258 A 45.354319 45.354319 0 0 0 121.5918 570.45312 A 279.68504 75.590543 0 0 1 121.5918 570.28906 A 279.68504 75.590543 0 0 1 401.27734 494.69922 A 279.68504 75.590543 0 0 1 680.96289 570.28906 A 45.354319 45.354319 0 0 0 726.31641 615.64258 A 45.354319 45.354319 0 0 0 771.66992 570.28906 A 45.354319 45.354319 0 0 0 726.47656 524.93555 A 75.590541 171.9685 0 0 1 726.31641 524.93555 A 75.590541 171.9685 0 0 1 650.72656 352.9668 A 75.590541 171.9685 0 0 1 726.31641 180.99805 A 45.354319 45.354319 0 0 0 771.66992 135.64453 A 45.354319 45.354319 0 0 0 726.31641 90.289062 A 45.354319 45.354319 0 0 0 680.96289 135.64453 A 279.68504 74.75246 0 0 1 401.27734 210.39648 A 279.68504 74.75246 0 0 1 121.5918 135.64453 A 45.354319 45.354319 0 0 0 76.238281 90.289062 z M 76.128906 126.19531 A 9.4488182 9.4488182 0 0 1 76.238281 126.19531 A 9.4488182 9.4488182 0 0 1 85.685547 135.64453 A 9.4488182 9.4488182 0 0 1 76.238281 145.0918 A 9.4488182 9.4488182 0 0 1 66.789062 135.64453 A 9.4488182 9.4488182 0 0 1 76.128906 126.19531 z M 726.20703 126.19531 A 9.4488183 9.4488183 0 0 1 726.31641 126.19531 A 9.4488183 9.4488183 0 0 1 735.76562 135.64453 A 9.4488183 9.4488183 0 0 1 726.31641 145.0918 A 9.4488183 9.4488183 0 0 1 716.86719 135.64453 A 9.4488183 9.4488183 0 0 1 726.20703 126.19531 z M 287.75586 271.70703 A 5.669291 5.669291 0 0 1 287.85156 271.70703 A 5.669291 5.669291 0 0 1 293.52148 277.375 A 5.669291 5.669291 0 0 1 287.85156 283.04492 A 5.669291 5.669291 0 0 1 282.18164 277.375 A 5.669291 5.669291 0 0 1 287.75586 271.70703 z M 514.52734 271.70703 A 5.6692911 5.6692911 0 0 1 514.62305 271.70703 A 5.6692911 5.6692911 0 0 1 520.29297 277.375 A 5.6692911 5.6692911 0 0 1 514.62305 283.04492 A 5.6692911 5.6692911 0 0 1 508.95508 277.375 A 5.6692911 5.6692911 0 0 1 514.52734 271.70703 z M 287.75391 422.88672 A 5.6692912 5.6692912 0 0 1 287.85156 422.88672 A 5.6692912 5.6692912 0 0 1 293.52148 428.55664 A 5.6692912 5.6692912 0 0 1 287.85156 434.22656 A 5.6692912 5.6692912 0 0 1 282.18164 428.55664 A 5.6692912 5.6692912 0 0 1 287.75391 422.88672 z M 514.62305 422.88672 A 5.6692913 5.6692913 0 0 1 520.29297 428.55664 A 5.6692913 5.6692913 0 0 1 514.62305 434.22656 A 5.6692913 5.6692913 0 0 1 508.95508 428.55664 A 5.6692913 5.6692913 0 0 1 514.62305 422.88672 z M 726.62305 559.85742 A 9.4488185 9.4488185 0 0 1 726.73242 559.85742 A 9.4488185 9.4488185 0 0 1 736.18164 569.30664 A 9.4488185 9.4488185 0 0 1 726.73242 578.75586 A 9.4488185 9.4488185 0 0 1 717.2832 569.30664 A 9.4488185 9.4488185 0 0 1 726.62305 559.85742 z M 76.128906 560.83984 A 9.4488184 9.4488184 0 0 1 76.238281 560.83984 A 9.4488184 9.4488184 0 0 1 85.685547 570.28906 A 9.4488184 9.4488184 0 0 1 76.238281 579.73828 A 9.4488184 9.4488184 0 0 1 66.789062 570.28906 A 9.4488184 9.4488184 0 0 1 76.128906 560.83984 z "
       transform="scale(0.26458333)" />
  </g>
</svg>
